<?xml version="1.0" encoding="UTF-8"?>
<svg id="Layer_1" data-name="Layer 1" xmlns="http://www.w3.org/2000/svg" xmlns:xlink="http://www.w3.org/1999/xlink" viewBox="0 0 34.1 33.45">
  <defs>
    <style>
      .cls-1 {
        fill: url(#linear-gradient-15);
      }

      .cls-2 {
        fill: url(#linear-gradient-13);
      }

      .cls-3 {
        fill: url(#linear-gradient-28);
      }

      .cls-4 {
        fill: url(#linear-gradient-2);
      }

      .cls-5 {
        fill: url(#linear-gradient-25);
      }

      .cls-6 {
        fill: url(#linear-gradient-10);
      }

      .cls-7 {
        fill: url(#linear-gradient-12);
      }

      .cls-8 {
        fill: url(#linear-gradient-27);
      }

      .cls-9 {
        fill: #fff;
      }

      .cls-10 {
        fill: url(#linear-gradient-26);
      }

      .cls-11 {
        fill: none;
      }

      .cls-12 {
        fill: url(#linear-gradient-4);
      }

      .cls-13 {
        fill: url(#linear-gradient-30);
      }

      .cls-14 {
        fill: url(#linear-gradient-3);
      }

      .cls-15 {
        fill: url(#linear-gradient-5);
      }

      .cls-16 {
        fill: url(#linear-gradient-22);
      }

      .cls-17 {
        fill: url(#linear-gradient-24);
      }

      .cls-18 {
        fill: url(#linear-gradient-33);
      }

      .cls-19 {
        fill: url(#linear-gradient-8);
      }

      .cls-20 {
        fill: url(#linear-gradient-14);
      }

      .cls-21 {
        fill: url(#linear-gradient-29);
      }

      .cls-22 {
        fill: url(#linear-gradient-20);
      }

      .cls-23 {
        fill: url(#linear-gradient-17);
      }

      .cls-24 {
        fill: url(#linear-gradient-7);
      }

      .cls-25 {
        fill: url(#linear-gradient-9);
      }

      .cls-26 {
        fill: url(#linear-gradient-11);
      }

      .cls-27 {
        fill: url(#linear-gradient-19);
      }

      .cls-28 {
        fill: url(#linear-gradient-6);
      }

      .cls-29 {
        fill: url(#linear-gradient-21);
      }

      .cls-30 {
        fill: url(#linear-gradient-32);
      }

      .cls-31 {
        fill: url(#linear-gradient-16);
      }

      .cls-32 {
        fill: url(#linear-gradient);
      }

      .cls-33 {
        fill: url(#linear-gradient-23);
      }

      .cls-34 {
        fill: url(#linear-gradient-31);
      }

      .cls-35 {
        fill: url(#linear-gradient-18);
      }
    </style>
    <linearGradient id="linear-gradient" x1="6.49" y1="10.1" x2="26.82" y2="10.1" gradientUnits="userSpaceOnUse">
      <stop offset="0" stop-color="#0fc1a3"/>
      <stop offset=".31" stop-color="#11bdad"/>
      <stop offset=".5" stop-color="#13bab6"/>
      <stop offset=".7" stop-color="#11b5b8"/>
      <stop offset=".91" stop-color="#0ca9c1"/>
      <stop offset="1" stop-color="#09a2c7"/>
    </linearGradient>
    <linearGradient id="linear-gradient-2" x1="-.39" y1="15.05" x2="19.35" y2="15.05" gradientUnits="userSpaceOnUse">
      <stop offset="0" stop-color="#13cd89"/>
      <stop offset=".22" stop-color="#13c893"/>
      <stop offset=".58" stop-color="#13bdae"/>
      <stop offset=".68" stop-color="#13bab6"/>
      <stop offset=".77" stop-color="#1abcb5"/>
      <stop offset=".92" stop-color="#2ec2b4"/>
      <stop offset="1" stop-color="#3dc7b3"/>
    </linearGradient>
    <linearGradient id="linear-gradient-3" x1="-.39" y1="8.69" x2="19.35" y2="8.69" xlink:href="#linear-gradient-2"/>
    <linearGradient id="linear-gradient-4" x1="-.39" y1="7.87" x2="19.35" y2="7.87" xlink:href="#linear-gradient-2"/>
    <linearGradient id="linear-gradient-5" x1="-.39" y1="21.44" x2="19.35" y2="21.44" xlink:href="#linear-gradient-2"/>
    <linearGradient id="linear-gradient-6" x1="-.39" y1="7.07" x2="19.35" y2="7.07" xlink:href="#linear-gradient-2"/>
    <linearGradient id="linear-gradient-7" x1="-.39" y1="6.28" x2="19.35" y2="6.28" xlink:href="#linear-gradient-2"/>
    <linearGradient id="linear-gradient-8" x1="-.39" y1="5.46" x2="19.35" y2="5.46" xlink:href="#linear-gradient-2"/>
    <linearGradient id="linear-gradient-9" x1="-.39" y1="9.54" x2="19.35" y2="9.54" xlink:href="#linear-gradient-2"/>
    <linearGradient id="linear-gradient-10" x1="1.78" y1="25.36" x2="23.58" y2="25.36" gradientUnits="userSpaceOnUse">
      <stop offset="0" stop-color="#13cd89"/>
      <stop offset=".17" stop-color="#13c893"/>
      <stop offset=".47" stop-color="#13bdae"/>
      <stop offset=".55" stop-color="#13bab6"/>
      <stop offset=".65" stop-color="#1fbdb5"/>
      <stop offset=".86" stop-color="#35c4b3"/>
      <stop offset="1" stop-color="#3dc7b3"/>
    </linearGradient>
    <linearGradient id="linear-gradient-11" x1="1.78" y1="23.6" x2="23.58" y2="23.6" xlink:href="#linear-gradient-10"/>
    <linearGradient id="linear-gradient-12" x1="1.78" y1="25.97" x2="23.58" y2="25.97" xlink:href="#linear-gradient-10"/>
    <linearGradient id="linear-gradient-13" x1="1.78" y1="23.15" x2="23.58" y2="23.15" xlink:href="#linear-gradient-10"/>
    <linearGradient id="linear-gradient-14" x1="1.78" y1="25.84" x2="23.58" y2="25.84" xlink:href="#linear-gradient-10"/>
    <linearGradient id="linear-gradient-15" x1="1.78" y1="21.82" x2="23.58" y2="21.82" xlink:href="#linear-gradient-10"/>
    <linearGradient id="linear-gradient-16" x1="1.78" y1="22.72" x2="23.58" y2="22.72" xlink:href="#linear-gradient-10"/>
    <linearGradient id="linear-gradient-17" x1="1.78" y1="25.27" x2="23.58" y2="25.27" xlink:href="#linear-gradient-10"/>
    <linearGradient id="linear-gradient-18" x1="1.78" y1="26.12" x2="23.58" y2="26.12" xlink:href="#linear-gradient-10"/>
    <linearGradient id="linear-gradient-19" x1="1.78" y1="25.68" x2="23.58" y2="25.68" xlink:href="#linear-gradient-10"/>
    <linearGradient id="linear-gradient-20" x1="1.78" y1="25.5" x2="23.58" y2="25.5" xlink:href="#linear-gradient-10"/>
    <linearGradient id="linear-gradient-21" x1="1.78" y1="26.06" x2="23.58" y2="26.06" xlink:href="#linear-gradient-10"/>
    <linearGradient id="linear-gradient-22" x1="1.78" y1="25.02" x2="23.58" y2="25.02" xlink:href="#linear-gradient-10"/>
    <linearGradient id="linear-gradient-23" x1="1.78" y1="23.96" x2="23.58" y2="23.96" xlink:href="#linear-gradient-10"/>
    <linearGradient id="linear-gradient-24" x1="1.78" y1="24.73" x2="23.58" y2="24.73" xlink:href="#linear-gradient-10"/>
    <linearGradient id="linear-gradient-25" x1="1.78" y1="24.37" x2="23.58" y2="24.37" xlink:href="#linear-gradient-10"/>
    <linearGradient id="linear-gradient-26" x1="1.78" y1="23.57" x2="23.58" y2="23.57" xlink:href="#linear-gradient-10"/>
    <linearGradient id="linear-gradient-27" x1="17.38" y1="22.94" x2="32.31" y2="22.94" gradientUnits="userSpaceOnUse">
      <stop offset="0" stop-color="#13cd89"/>
      <stop offset=".16" stop-color="#17cc8d"/>
      <stop offset=".32" stop-color="#23ca99"/>
      <stop offset=".48" stop-color="#38c7ae"/>
      <stop offset=".51" stop-color="#3dc7b3"/>
      <stop offset=".69" stop-color="#3ac5b4"/>
      <stop offset=".8" stop-color="#31beb7"/>
      <stop offset=".9" stop-color="#22b4bd"/>
      <stop offset=".98" stop-color="#0ea5c4"/>
      <stop offset="1" stop-color="#09a2c7"/>
    </linearGradient>
    <linearGradient id="linear-gradient-28" x1="12.68" y1="12.96" x2="34.49" y2="12.96" gradientUnits="userSpaceOnUse">
      <stop offset="0" stop-color="#3dc7b3"/>
      <stop offset=".2" stop-color="#3bc4b3" stop-opacity=".99"/>
      <stop offset=".39" stop-color="#38bbb3" stop-opacity=".97"/>
      <stop offset=".57" stop-color="#32acb3" stop-opacity=".94"/>
      <stop offset=".74" stop-color="#2b97b3" stop-opacity=".9"/>
      <stop offset=".9" stop-color="#207cb3" stop-opacity=".84"/>
      <stop offset="1" stop-color="#1a6ab4" stop-opacity=".8"/>
    </linearGradient>
    <linearGradient id="linear-gradient-29" x1="12.68" y1="15.12" x2="34.49" y2="15.12" xlink:href="#linear-gradient-28"/>
    <linearGradient id="linear-gradient-30" x1="12.68" y1="13.48" x2="34.49" y2="13.48" xlink:href="#linear-gradient-28"/>
    <linearGradient id="linear-gradient-31" x1="12.68" y1="12.57" x2="34.49" y2="12.57" xlink:href="#linear-gradient-28"/>
    <linearGradient id="linear-gradient-32" x1="12.68" y1="14.32" x2="34.49" y2="14.32" xlink:href="#linear-gradient-28"/>
    <linearGradient id="linear-gradient-33" x1="12.68" y1="16.31" x2="34.49" y2="16.31" xlink:href="#linear-gradient-28"/>
  </defs>
  <path class="cls-11" d="M13.13,16.48c.14,1.46.57,2.84,1.29,4.11,1.51.45,3.14.54,4.71.28.97-1.38,1.59-2.98,1.81-4.64v-.09c-1-1.22-2.28-2.2-3.71-2.84h0s0,0-.01,0c-1.6.7-3,1.79-4.08,3.17Z"/>
  <path class="cls-32" d="M8.87,4.36c-.81,1.12-1.39,2.38-1.7,3.7-.19.8-.29,1.62-.29,2.45,0,1.04.15,2.06.45,3.04.67,2.22,2.09,4.19,4,5.54.2.14.41.27.62.4.06.04.12.07.17.1.18.1.35.2.54.29.04.02.08.04.12.06.19.09.38.17.57.25-.42-.91-.72-1.86-.89-2.85l-.03.05-.09-1.01c-.03-.31-.04-.62-.04-.93,0-1.21.19-2.39.56-3.53.77-2.35,2.32-4.41,4.37-5.8,1.88-1.28,4.07-1.96,6.35-1.96.26,0,.51.01.76.03.07,0,.14.01.21.02.21.02.42.04.63.07.04,0,.09.01.13.02.21.03.42.07.63.12-1.96-2.75-5.16-4.42-8.56-4.42s-6.55,1.63-8.52,4.36Z"/>
  <path class="cls-4" d="M2.18,21.27h0c.25.33.52.63.8.92.25.26.51.5.78.72.06.05.12.1.18.15.85.68,1.79,1.22,2.8,1.61.13.05.27.1.4.14.27.09.54.17.81.24.24.06.49.12.74.16.59.1,1.2.15,1.82.15.12,0,.23,0,.35,0,2-.06,3.92-.69,5.56-1.82.23-.15.45-.32.66-.49.06-.05.12-.1.18-.15.16-.13.31-.27.46-.41.06-.05.11-.1.17-.16.19-.19.37-.38.55-.58-1.17.11-2.35.03-3.48-.22l.03.05-.95-.3s0,0,0,0c-.85-.26-1.66-.62-2.42-1.08-.25-.15-.5-.31-.75-.49-2.05-1.45-3.57-3.56-4.29-5.95-.32-1.05-.48-2.15-.48-3.27,0-.28.01-.56.03-.84,0-.09.02-.18.03-.27.02-.19.04-.37.07-.56.02-.1.03-.21.05-.31.03-.17.06-.34.1-.51.02-.11.05-.21.08-.32.04-.17.09-.33.14-.49.03-.1.06-.2.09-.3.06-.17.12-.34.19-.51.03-.09.07-.18.1-.26.09-.22.19-.43.29-.64.02-.04.03-.07.05-.11.12-.23.24-.46.37-.68C3.18,5.97,0,10.09,0,14.85c0,2.35.76,4.56,2.18,6.41Z"/>
  <path class="cls-9" d="M6.27,8.54c-.02.1-.04.21-.05.31.02-.1.03-.21.05-.31Z"/>
  <path class="cls-14" d="M6.27,8.54c-.02.1-.04.21-.05.31.02-.1.03-.21.05-.31Z"/>
  <path class="cls-9" d="M6.45,7.72c-.03.11-.05.21-.08.32.02-.11.05-.21.08-.32Z"/>
  <path class="cls-12" d="M6.45,7.72c-.03.11-.05.21-.08.32.02-.11.05-.21.08-.32Z"/>
  <path class="cls-9" d="M14.96,21.54c-.31-.07-.62-.15-.92-.24l.95.3-.03-.05Z"/>
  <path class="cls-15" d="M14.96,21.54c-.31-.07-.62-.15-.92-.24l.95.3-.03-.05Z"/>
  <path class="cls-9" d="M6.68,6.92c-.03.1-.06.2-.09.3.03-.1.06-.2.09-.3Z"/>
  <path class="cls-28" d="M6.68,6.92c-.03.1-.06.2-.09.3.03-.1.06-.2.09-.3Z"/>
  <path class="cls-9" d="M6.97,6.15c-.04.09-.07.18-.1.26.03-.09.07-.18.1-.26Z"/>
  <path class="cls-24" d="M6.97,6.15c-.04.09-.07.18-.1.26.03-.09.07-.18.1-.26Z"/>
  <path class="cls-9" d="M7.32,5.4s-.03.07-.05.11c.02-.04.03-.07.05-.11Z"/>
  <path class="cls-19" d="M7.32,5.4s-.03.07-.05.11c.02-.04.03-.07.05-.11Z"/>
  <path class="cls-9" d="M6.16,9.41c0,.09-.02.18-.03.27,0-.09.02-.18.03-.27Z"/>
  <path class="cls-25" d="M6.16,9.41c0,.09-.02.18-.03.27,0-.09.02-.18.03-.27Z"/>
  <path class="cls-6" d="M22.67,26.22c.35-1.06.53-2.16.53-3.29,0-1.04-.15-2.06-.45-3.04-.28-.93-.68-1.81-1.21-2.62-.26,1.2-.73,2.36-1.37,3.42h.06s-.57.77-.57.77c-.39.53-.81,1.03-1.28,1.48-.03.02-.05.05-.08.07-.45.43-.93.82-1.44,1.17-1.77,1.21-3.83,1.88-5.97,1.95-.12,0-.25,0-.38,0-.21,0-.42,0-.63-.02-.07,0-.14-.01-.21-.02-.14-.01-.28-.02-.41-.04-.08,0-.16-.02-.25-.03-.12-.02-.25-.03-.37-.05-.09-.01-.17-.03-.26-.05-.12-.02-.23-.05-.35-.07-.09-.02-.17-.04-.26-.06-.11-.03-.23-.06-.34-.09-.09-.02-.17-.05-.26-.08-.11-.03-.22-.07-.33-.11-.08-.03-.17-.06-.25-.09-.11-.04-.22-.08-.33-.13-.08-.03-.16-.07-.24-.1-.11-.05-.22-.1-.33-.15-.08-.04-.15-.07-.23-.11-.12-.06-.23-.12-.35-.18-.06-.03-.13-.07-.19-.1-.16-.09-.32-.19-.48-.29-.03-.02-.05-.03-.08-.05-.16-.1-.32-.21-.47-.32-.06-.04-.11-.09-.17-.13-.11-.08-.21-.16-.32-.24-.06-.05-.13-.11-.19-.16-.09-.08-.19-.16-.28-.24-.07-.06-.13-.12-.19-.18-.09-.08-.17-.16-.26-.25-.06-.06-.13-.13-.19-.2-.04-.05-.09-.09-.14-.14,0,.15,0,.31,0,.46,0,5.8,4.72,10.51,10.51,10.51,1.46,0,2.88-.3,4.21-.88,2.74-1.2,4.85-3.51,5.78-6.35Z"/>
  <path class="cls-9" d="M16.87,24.19c.51-.35.99-.74,1.44-1.17-.45.43-.93.82-1.44,1.17Z"/>
  <path class="cls-26" d="M16.87,24.19c.51-.35.99-.74,1.44-1.17-.45.43-.93.82-1.44,1.17Z"/>
  <path class="cls-9" d="M8.39,25.94c.09.02.17.03.26.05-.09-.01-.17-.03-.26-.05Z"/>
  <path class="cls-7" d="M8.39,25.94c.09.02.17.03.26.05-.09-.01-.17-.03-.26-.05Z"/>
  <path class="cls-9" d="M2.76,23.06c.06.06.13.12.19.18-.07-.06-.13-.12-.19-.18Z"/>
  <path class="cls-2" d="M2.76,23.06c.06.06.13.12.19.18-.07-.06-.13-.12-.19-.18Z"/>
  <path class="cls-9" d="M7.78,25.81c.09.02.17.04.26.06-.09-.02-.17-.04-.26-.06Z"/>
  <path class="cls-20" d="M7.78,25.81c.09.02.17.04.26.06-.09-.02-.17-.04-.26-.06Z"/>
  <path class="cls-9" d="M19.67,21.46l.57-.78h-.06c-.16.27-.33.53-.51.78-.39.53-.81,1.03-1.28,1.48.47-.45.9-.95,1.28-1.48Z"/>
  <path class="cls-1" d="M19.67,21.46l.57-.78h-.06c-.16.27-.33.53-.51.78-.39.53-.81,1.03-1.28,1.48.47-.45.9-.95,1.28-1.48Z"/>
  <path class="cls-9" d="M2.51,22.82c-.06-.06-.13-.13-.19-.2.06.07.13.13.19.2Z"/>
  <path class="cls-31" d="M2.51,22.82c-.06-.06-.13-.13-.19-.2.06.07.13.13.19.2Z"/>
  <path class="cls-9" d="M6.03,25.22c.08.03.16.07.24.1-.08-.03-.16-.07-.24-.1Z"/>
  <path class="cls-23" d="M6.03,25.22c.08.03.16.07.24.1-.08-.03-.16-.07-.24-.1Z"/>
  <path class="cls-9" d="M9.67,26.11c.07,0,.14.01.21.02-.07,0-.14-.01-.21-.02Z"/>
  <path class="cls-35" d="M9.67,26.11c.07,0,.14.01.21.02-.07,0-.14-.01-.21-.02Z"/>
  <path class="cls-9" d="M7.18,25.65c.09.03.17.05.26.08-.09-.02-.17-.05-.26-.08Z"/>
  <path class="cls-27" d="M7.18,25.65c.09.03.17.05.26.08-.09-.02-.17-.05-.26-.08Z"/>
  <path class="cls-9" d="M6.6,25.45c.08.03.17.06.25.09-.08-.03-.17-.06-.25-.09Z"/>
  <path class="cls-22" d="M6.6,25.45c.08.03.17.06.25.09-.08-.03-.17-.06-.25-.09Z"/>
  <path class="cls-9" d="M9.01,26.04c.08.01.16.02.25.03-.08,0-.16-.02-.25-.03Z"/>
  <path class="cls-29" d="M9.01,26.04c.08.01.16.02.25.03-.08,0-.16-.02-.25-.03Z"/>
  <path class="cls-9" d="M5.48,24.97c.07.04.15.07.23.11-.08-.04-.15-.07-.23-.11Z"/>
  <path class="cls-16" d="M5.48,24.97c.07.04.15.07.23.11-.08-.04-.15-.07-.23-.11Z"/>
  <path class="cls-9" d="M3.74,23.89c.06.04.11.09.17.13-.06-.04-.11-.09-.17-.13Z"/>
  <path class="cls-33" d="M3.74,23.89c.06.04.11.09.17.13-.06-.04-.11-.09-.17-.13Z"/>
  <path class="cls-9" d="M4.94,24.68c.06.04.13.07.19.1-.06-.03-.13-.07-.19-.1Z"/>
  <path class="cls-17" d="M4.94,24.68c.06.04.13.07.19.1-.06-.03-.13-.07-.19-.1Z"/>
  <path class="cls-9" d="M4.38,24.34s.05.03.08.05c-.03-.02-.05-.03-.08-.05Z"/>
  <path class="cls-5" d="M4.38,24.34s.05.03.08.05c-.03-.02-.05-.03-.08-.05Z"/>
  <path class="cls-9" d="M3.23,23.49c.06.05.13.11.19.16-.06-.05-.13-.11-.19-.16Z"/>
  <path class="cls-10" d="M3.23,23.49c.06.05.13.11.19.16-.06-.05-.13-.11-.19-.16Z"/>
  <path class="cls-8" d="M31.89,22.09v-.02c-.25-3.1-1.86-5.91-4.41-7.71-1.76-1.25-3.83-1.91-5.99-1.92-.06,0-.12,0-.18,0-1.02.03-2.02.22-2.97.55,1.37.75,2.58,1.8,3.53,3.06.82,1.09,1.44,2.31,1.82,3.62.31,1.05.47,2.15.47,3.26,0,1.21-.19,2.39-.55,3.53-.89,2.76-2.79,5.06-5.28,6.42,1.06.37,2.17.56,3.31.56,5.66,0,10.27-4.72,10.27-10.51,0-.29-.01-.57-.04-.85Z"/>
  <path class="cls-3" d="M26.71,5.42c-1.01-.31-2.06-.47-3.12-.47-2.12,0-4.17.63-5.91,1.82-1.91,1.3-3.35,3.22-4.07,5.4-.09.26-.16.52-.22.79-.02.08-.03.17-.05.25-.04.18-.08.37-.11.55-.02.1-.03.21-.04.32-.02.17-.05.33-.06.5,0,.12-.01.23-.02.35,0,.13-.01.27-.02.4,1.07-1.17,2.37-2.1,3.81-2.73,1.31-.57,2.7-.89,4.14-.94.12,0,.25,0,.38,0,.03,0,.05,0,.08,0,.05,0,.11,0,.16,0,2.3,0,4.51.72,6.38,2.07,2.4,1.74,4,4.34,4.5,7.26h0c1.03-1.65,1.56-3.54,1.56-5.52,0-4.63-2.97-8.67-7.39-10.04Z"/>
  <path class="cls-9" d="M13.07,15.33s0,0,0,0c0-.13,0-.27.02-.4,0,.14-.02.27-.02.41Z"/>
  <path class="cls-21" d="M13.07,15.33s0,0,0,0c0-.13,0-.27.02-.4,0,.14-.02.27-.02.41Z"/>
  <path class="cls-9" d="M13.21,13.76c.03-.18.07-.37.11-.55-.04.18-.08.37-.11.55Z"/>
  <path class="cls-13" d="M13.21,13.76c.03-.18.07-.37.11-.55-.04.18-.08.37-.11.55Z"/>
  <path class="cls-9" d="M13.37,12.96c.06-.26.14-.53.22-.79-.09.26-.16.52-.22.79Z"/>
  <path class="cls-34" d="M13.37,12.96c.06-.26.14-.53.22-.79-.09.26-.16.52-.22.79Z"/>
  <path class="cls-9" d="M13.11,14.57c.01-.17.04-.33.06-.5-.02.17-.05.33-.06.5Z"/>
  <path class="cls-30" d="M13.11,14.57c.01-.17.04-.33.06-.5-.02.17-.05.33-.06.5Z"/>
  <path class="cls-9" d="M28.04,13.72c-1.87-1.36-4.08-2.07-6.38-2.07-.05,0-.11,0-.16,0,2.32.02,4.55.73,6.44,2.07,2.45,1.74,4.09,4.34,4.6,7.26-.5-2.91-2.1-5.52-4.5-7.26Z"/>
  <path class="cls-18" d="M28.04,13.72c-1.87-1.36-4.08-2.07-6.38-2.07-.05,0-.11,0-.16,0,2.32.02,4.55.73,6.44,2.07,2.45,1.74,4.09,4.34,4.6,7.26-.5-2.91-2.1-5.52-4.5-7.26Z"/>
</svg>